<svg width="56" height="67" viewBox="0 0 56 67" fill="none" xmlns="http://www.w3.org/2000/svg">
<path d="M7.19896 48.5284C9.77944 54.3906 27.119 65.0159 27.119 65.0159C27.119 65.0159 43.0171 55.44 48.8704 47.7349C54.7237 40.0299 60.4188 19.192 48.7527 8.25286C36.9696 -2.796 16.4512 -3.00874 4.83877 9.17823C-6.12992 20.6896 4.61849 42.6662 7.19896 48.5284Z" fill="#B58F0B"/>
<path d="M10.8246 50.1007C13.2115 55.9659 29.2506 66.5966 29.2506 66.5966C29.2506 66.5966 43.9563 57.0158 49.3705 49.3068C54.7848 41.5978 60.0529 20.7494 49.2617 9.80464C38.3624 -1.24984 19.3829 -1.46269 8.64138 10.7305C-1.50464 22.2477 8.43762 44.2355 10.8246 50.1007Z" fill="#D0A714"/>
<ellipse cx="0.998827" cy="13.2155" rx="0.998827" ry="13.2155" transform="matrix(0.999382 0.0351594 -0.0346415 0.9994 29.1176 31.2777)" fill="#B58F0B"/>
<ellipse cx="1.20748" cy="22.4643" rx="1.20748" ry="22.4643" transform="matrix(0.0519497 -0.99865 -0.998609 -0.0527251 53.738 24.3419)" fill="#B58F0B"/>
</svg>
