<svg width="21" height="25" viewBox="0 0 21 25" fill="none" xmlns="http://www.w3.org/2000/svg">
<path d="M3.49427 18.2831C4.41351 20.4623 10.5903 24.4121 10.5903 24.4121C10.5903 24.4121 16.2537 20.8524 18.3388 17.9881C20.4239 15.1238 22.4526 7.37763 18.2968 3.31112C14.0994 -0.796161 6.79018 -0.875246 2.65351 3.65512C-1.25383 7.93434 2.57504 16.1039 3.49427 18.2831Z" fill="#B58F0B"/>
<path d="M4.78597 18.8678C5.63626 21.0481 11.3498 24.9999 11.3498 24.9999C11.3498 24.9999 16.5883 21.4384 18.517 18.5727C20.4457 15.7069 22.3224 7.95675 18.4783 3.88817C14.5956 -0.221206 7.83466 -0.300331 4.00826 4.23234C0.39399 8.51374 3.93568 16.6874 4.78597 18.8678Z" fill="#D0A714"/>
<ellipse cx="0.355828" cy="4.91245" rx="0.355828" ry="4.91245" transform="matrix(0.999327 0.0366884 -0.0331977 0.999449 11.3018 11.8708)" fill="#B58F0B"/>
<ellipse cx="0.448816" cy="8.00339" rx="0.448816" ry="8.00339" transform="matrix(0.0497875 -0.99876 -0.998486 -0.0550142 20.0727 9.29225)" fill="#B58F0B"/>
</svg>
