<svg width="56" height="67" viewBox="0 0 56 67" fill="none" xmlns="http://www.w3.org/2000/svg">
<path d="M7.19896 18.0724C9.77944 12.2101 27.119 1.58482 27.119 1.58482C27.119 1.58482 43.0171 11.1608 48.8704 18.8658C54.7237 26.5709 60.4188 47.4088 48.7527 58.3479C36.9696 69.3968 16.4512 69.6095 4.83877 57.4225C-6.12992 45.9112 4.61849 23.9346 7.19896 18.0724Z" fill="#B58F0B"/>
<path d="M10.8246 16.5001C13.2115 10.6349 29.2506 0.00413513 29.2506 0.00413513C29.2506 0.00413513 43.9563 9.58496 49.3705 17.294C54.7848 25.003 60.0529 45.8514 49.2617 56.7961C38.3624 67.8506 19.3829 68.0635 8.64138 55.8703C-1.50464 44.3531 8.43762 22.3653 10.8246 16.5001Z" fill="#D0A714"/>
<ellipse cx="0.998827" cy="13.2155" rx="0.998827" ry="13.2155" transform="matrix(0.999382 -0.0351594 -0.0346415 -0.9994 29.1176 35.3231)" fill="#B58F0B"/>
<ellipse cx="1.20748" cy="22.4643" rx="1.20748" ry="22.4643" transform="matrix(0.0519497 0.99865 -0.998609 0.0527251 53.738 42.2589)" fill="#B58F0B"/>
</svg>
