<svg width="35" height="42" viewBox="0 0 35 42" fill="none" xmlns="http://www.w3.org/2000/svg">
<path d="M5.35705 30.5805C6.9394 34.2545 17.572 40.9136 17.572 40.9136C17.572 40.9136 27.3208 34.9122 30.91 30.0833C34.4993 25.2543 37.9916 12.1949 30.8379 5.33908C23.6125 -1.58546 11.0305 -1.71879 3.90977 5.91903C-2.81625 13.1334 3.77469 26.9066 5.35705 30.5805Z" fill="#B58F0B"/>
<path d="M7.58051 31.5663C9.04418 35.2421 18.8793 41.9046 18.8793 41.9046C18.8793 41.9046 27.8969 35.9001 31.2169 31.0687C34.5369 26.2373 37.7673 13.1712 31.1502 6.31193C24.4667 -0.616137 12.8285 -0.749535 6.24179 6.89217C0.0202482 14.1103 6.11684 27.8904 7.58051 31.5663Z" fill="#D0A714"/>
<ellipse cx="0.612499" cy="8.28218" rx="0.612499" ry="8.28218" transform="matrix(0.999354 0.0359335 -0.0338952 0.999425 18.7968 19.7699)" fill="#B58F0B"/>
<ellipse cx="0.756707" cy="13.776" rx="0.756707" ry="13.776" transform="matrix(0.0508321 -0.998707 -0.998547 -0.0538841 33.8947 15.4227)" fill="#B58F0B"/>
</svg>
