<svg width="20" height="26" viewBox="0 0 20 26" fill="none" xmlns="http://www.w3.org/2000/svg">
<path d="M2.71388 18.5663C3.63311 20.7455 9.80986 24.6953 9.80986 24.6953C9.80986 24.6953 15.4731 21.1356 17.5582 18.2713C19.6433 15.4071 21.672 7.6609 17.5163 3.59442C13.3189 -0.512846 6.00975 -0.591931 1.87313 3.93841C-2.03417 8.21761 1.79466 16.3871 2.71388 18.5663Z" fill="#0B3C99"/>
<path d="M4.00582 19.1512C4.8561 21.3315 10.5696 25.2833 10.5696 25.2833C10.5696 25.2833 15.8081 21.7218 17.7368 18.8561C19.6654 15.9903 21.542 8.2402 17.698 4.17165C13.8154 0.0622922 7.05448 -0.0168325 3.22813 4.51582C-0.38611 8.7972 3.15554 16.9709 4.00582 19.1512Z" fill="#1252CF"/>
<ellipse cx="0.355825" cy="4.91243" rx="0.355825" ry="4.91243" transform="matrix(0.999327 0.0366885 -0.0331975 0.999449 10.5222 12.1543)" fill="#0B3C99"/>
<ellipse cx="0.448814" cy="8.0033" rx="0.448814" ry="8.0033" transform="matrix(0.0497872 -0.99876 -0.998486 -0.0550145 19.2924 9.57581)" fill="#0B3C99"/>
</svg>
