<svg width="34" height="42" viewBox="0 0 34 42" fill="none" xmlns="http://www.w3.org/2000/svg">
<path d="M4.61456 30.5796C6.18316 34.2535 16.7234 40.9126 16.7234 40.9126C16.7234 40.9126 26.3873 34.9112 29.9454 30.0823C33.5034 25.2533 36.9653 12.1939 29.8739 5.33808C22.7113 -1.58645 10.2387 -1.71978 3.17987 5.91803C-3.48767 13.1324 3.04597 26.9056 4.61456 30.5796Z" fill="#0B3C99"/>
<path d="M6.8191 31.5656C8.27005 35.2415 18.0197 41.9039 18.0197 41.9039C18.0197 41.9039 26.9588 35.8995 30.25 31.0681C33.5412 26.2367 36.7434 13.1706 30.1838 6.31127C23.5585 -0.616794 12.0214 -0.750192 5.49202 6.89152C-0.675428 14.1096 5.36816 27.8898 6.8191 31.5656Z" fill="#1252CF"/>
<ellipse cx="0.60718" cy="8.2821" rx="0.60718" ry="8.2821" transform="matrix(0.999343 0.0362482 -0.0336008 0.999435 17.939 19.7694)" fill="#0B3C99"/>
<ellipse cx="0.75669" cy="13.6566" rx="0.75669" ry="13.6566" transform="matrix(0.0503912 -0.99873 -0.998522 -0.0543553 32.9046 15.4223)" fill="#0B3C99"/>
</svg>
