<svg width="56" height="67" viewBox="0 0 56 67" fill="none" xmlns="http://www.w3.org/2000/svg">
<path d="M7.19896 48.5318C9.77944 54.394 27.119 65.0194 27.119 65.0194C27.119 65.0194 43.0171 55.4434 48.8704 47.7383C54.7237 40.0333 60.4188 19.1954 48.7527 8.25628C36.9696 -2.79258 16.4512 -3.00532 4.83877 9.18165C-6.12992 20.693 4.61849 42.6696 7.19896 48.5318Z" fill="#0B3C99"/>
<path d="M10.8246 50.1041C13.2115 55.9693 29.2506 66.6001 29.2506 66.6001C29.2506 66.6001 43.9563 57.0192 49.3705 49.3102C54.7848 41.6012 60.0529 20.7528 49.2617 9.80806C38.3624 -1.24643 19.3829 -1.45928 8.64138 10.7339C-1.50464 22.2511 8.43762 44.2389 10.8246 50.1041Z" fill="#1252CF"/>
<ellipse cx="0.998827" cy="13.2155" rx="0.998827" ry="13.2155" transform="matrix(0.999382 0.0351594 -0.0346415 0.9994 29.1176 31.2811)" fill="#0B3C99"/>
<ellipse cx="1.20748" cy="22.4643" rx="1.20748" ry="22.4643" transform="matrix(0.0519497 -0.99865 -0.998609 -0.0527251 53.738 24.3453)" fill="#0B3C99"/>
</svg>
