<svg width="56" height="67" viewBox="0 0 56 67" fill="none" xmlns="http://www.w3.org/2000/svg">
<path d="M7.19896 48.5285C9.77944 54.3907 27.119 65.016 27.119 65.016C27.119 65.016 43.0171 55.4401 48.8704 47.735C54.7237 40.0299 60.4188 19.1921 48.7527 8.25295C36.9696 -2.79591 16.4512 -3.00865 4.83877 9.17833C-6.12992 20.6897 4.61849 42.6663 7.19896 48.5285Z" fill="#A7A5A0"/>
<path d="M10.8246 50.1008C13.2115 55.966 29.2506 66.5967 29.2506 66.5967C29.2506 66.5967 43.9563 57.0159 49.3705 49.3069C54.7848 41.5979 60.0529 20.7495 49.2617 9.80473C38.3624 -1.24975 19.3829 -1.4626 8.64138 10.7306C-1.50464 22.2478 8.43762 44.2356 10.8246 50.1008Z" fill="#CCCAC4"/>
<ellipse cx="0.998827" cy="13.2155" rx="0.998827" ry="13.2155" transform="matrix(0.999382 0.0351594 -0.0346415 0.9994 29.1176 31.2778)" fill="#A7A5A0"/>
<ellipse cx="1.20748" cy="22.4643" rx="1.20748" ry="22.4643" transform="matrix(0.0519497 -0.99865 -0.998609 -0.0527251 53.738 24.3419)" fill="#A7A5A0"/>
</svg>
