<svg width="21" height="26" viewBox="0 0 21 26" fill="none" xmlns="http://www.w3.org/2000/svg">
<path d="M3.07352 18.7971C3.99273 20.9763 10.1694 24.9262 10.1694 24.9262C10.1694 24.9262 15.8326 21.3664 17.9176 18.5021C20.0026 15.6378 22.0314 7.89155 17.8757 3.82501C13.6783 -0.282299 6.36933 -0.361384 2.23278 4.16901C-1.67446 8.44826 2.15431 16.6179 3.07352 18.7971Z" fill="#A7A5A0"/>
<path d="M4.36574 19.3817C5.216 21.562 10.9294 25.5139 10.9294 25.5139C10.9294 25.5139 16.1678 21.9523 18.0964 19.0865C20.0251 16.2208 21.9016 8.47056 18.0577 4.40196C14.1751 0.29255 7.41435 0.213424 3.58805 4.74613C-0.0261209 9.02756 3.51547 17.2013 4.36574 19.3817Z" fill="#CCCAC4"/>
<ellipse cx="0.355819" cy="4.91249" rx="0.355819" ry="4.91249" transform="matrix(0.999327 0.0366896 -0.0331965 0.999449 10.881 12.3842)" fill="#A7A5A0"/>
<ellipse cx="0.44882" cy="8.00317" rx="0.44882" ry="8.00317" transform="matrix(0.0497858 -0.99876 -0.998486 -0.055016 19.6515 9.80592)" fill="#A7A5A0"/>
</svg>
