<svg width="56" height="67" viewBox="0 0 56 67" fill="none" xmlns="http://www.w3.org/2000/svg">
<path d="M7.19896 18.0689C9.77944 12.2067 27.119 1.58134 27.119 1.58134C27.119 1.58134 43.0171 11.1573 48.8704 18.8624C54.7237 26.5674 60.4188 47.4053 48.7527 58.3444C36.9696 69.3933 16.4512 69.606 4.83877 57.4191C-6.12992 45.9077 4.61849 23.9311 7.19896 18.0689Z" fill="#A7A5A0"/>
<path d="M10.8246 16.4966C13.2115 10.6314 29.2506 0.000656128 29.2506 0.000656128C29.2506 0.000656128 43.9563 9.58149 49.3705 17.2905C54.7848 24.9995 60.0529 45.8479 49.2617 56.7926C38.3624 67.8471 19.3829 68.06 8.64138 55.8668C-1.50464 44.3496 8.43762 22.3618 10.8246 16.4966Z" fill="#CCCAC4"/>
<ellipse cx="0.998827" cy="13.2155" rx="0.998827" ry="13.2155" transform="matrix(0.999382 -0.0351594 -0.0346415 -0.9994 29.1176 35.3196)" fill="#A7A5A0"/>
<ellipse cx="1.20748" cy="22.4643" rx="1.20748" ry="22.4643" transform="matrix(0.0519497 0.99865 -0.998609 0.0527251 53.738 42.2554)" fill="#A7A5A0"/>
</svg>
