<svg width="35" height="42" viewBox="0 0 35 42" fill="none" xmlns="http://www.w3.org/2000/svg">
<path d="M4.7714 30.5791C6.38498 34.2531 17.2274 40.9122 17.2274 40.9122C17.2274 40.9122 27.1684 34.9108 30.8285 30.0818C34.4886 25.2529 38.0497 12.1934 30.7549 5.33758C23.387 -1.58697 10.5568 -1.7203 3.29558 5.91753C-3.56314 13.132 3.15783 26.9051 4.7714 30.5791Z" fill="#A7A5A0"/>
<path d="M7.03973 31.5646C8.53227 35.2405 18.5615 41.903 18.5615 41.903C18.5615 41.903 27.7569 35.8985 31.1424 31.0671C34.528 26.2357 37.822 13.1695 31.0744 6.3102C24.259 -0.617882 12.3912 -0.75128 5.67459 6.89045C-0.669683 14.1085 5.54718 27.8888 7.03973 31.5646Z" fill="#CCCAC4"/>
<ellipse cx="0.624567" cy="8.28239" rx="0.624567" ry="8.28239" transform="matrix(0.999379 0.0352393 -0.034563 0.999402 18.4765 19.7675)" fill="#A7A5A0"/>
<ellipse cx="0.756748" cy="14.047" rx="0.756748" ry="14.047" transform="matrix(0.0518321 -0.998656 -0.998603 -0.0528447 33.8723 15.4208)" fill="#A7A5A0"/>
</svg>
