<svg width="690" height="309" viewBox="0 0 690 309" fill="none" xmlns="http://www.w3.org/2000/svg">
<rect x="17.9374" y="100.006" width="654.125" height="5.98837" fill="#9E642E"/>
<rect x="17.9374" y="71.2616" width="654.125" height="5.98837" fill="#9E642E"/>
<path d="M17.9374 42.5174H672.062V48.5058H17.9374V42.5174Z" fill="#9E642E"/>
<rect x="17.9374" y="261.692" width="654.125" height="5.98837" fill="#9E642E"/>
<rect x="17.9374" y="175.459" width="654.125" height="5.98837" fill="#9E642E"/>
<rect x="17.9374" y="204.203" width="654.125" height="5.98837" fill="#9E642E"/>
<rect x="17.9374" y="232.948" width="654.125" height="5.98837" fill="#9E642E"/>
<rect width="690" height="17.9651" fill="#9A2005"/>
<rect x="672.062" width="17.9376" height="309" fill="#9A2005"/>
<rect y="119.169" width="690" height="35.9302" fill="#9A2005"/>
<rect y="291.035" width="690" height="17.9651" fill="#9A2005"/>
<rect width="17.9376" height="309" fill="#0B4CAE"/>
<rect x="245.147" width="17.9376" height="119.169" fill="#0B4CAE"/>
<rect x="529.758" width="17.9376" height="119.169" fill="#9A2005"/>
<rect x="102.842" width="17.9376" height="119.169" fill="#0B4CAE"/>
<rect width="17.9376" height="153.901" transform="matrix(1 0 0 -1 245.147 309)" fill="#0B4CAE"/>
<rect width="17.9376" height="153.901" transform="matrix(1 0 0 -1 529.758 309)" fill="#9A2005"/>
<rect x="102.842" y="155.099" width="17.9376" height="153.901" fill="#0B4CAE"/>
<rect y="119.169" width="405.39" height="35.9302" fill="#0B4CAE"/>
<rect y="291.035" width="405.39" height="17.9651" fill="#0B4CAE"/>
<rect width="405.39" height="17.9651" fill="#0B4CAE"/>
<rect x="387.452" width="17.9376" height="119.169" fill="#132E72"/>
<rect width="17.9376" height="153.901" transform="matrix(1 0 0 -1 387.452 309)" fill="#132E72"/>
</svg>
