<svg width="690" height="309" viewBox="0 0 690 309" fill="none" xmlns="http://www.w3.org/2000/svg">
<rect x="17.9359" y="99.8524" width="654.125" height="5.97923" fill="#9E642E"/>
<rect x="17.9359" y="71.1526" width="654.125" height="5.97923" fill="#9E642E"/>
<path d="M17.9359 42.4526H672.061V48.4319H17.9359V42.4526Z" fill="#9E642E"/>
<rect x="17.9359" y="261.29" width="654.125" height="5.97923" fill="#9E642E"/>
<rect x="17.9359" y="175.19" width="654.125" height="5.97923" fill="#9E642E"/>
<rect x="17.9359" y="203.89" width="654.125" height="5.97923" fill="#9E642E"/>
<rect x="17.9359" y="232.59" width="654.125" height="5.97923" fill="#9E642E"/>
<rect width="689.998" height="17.9375" fill="#9A2005"/>
<rect x="672.063" width="17.9375" height="308.525" fill="#9A2005"/>
<rect y="118.986" width="689.998" height="35.8751" fill="#9A2005"/>
<rect y="290.589" width="689.998" height="17.9375" fill="#9A2005"/>
<rect width="17.9375" height="308.525" fill="#9A2005"/>
<rect x="245.147" width="17.9375" height="118.986" fill="#9A2005"/>
<rect x="387.452" width="17.9375" height="118.986" fill="#9A2005"/>
<rect x="529.757" width="17.9375" height="118.986" fill="#9A2005"/>
<rect x="102.842" width="17.9375" height="118.986" fill="#9A2005"/>
<rect width="17.9375" height="153.666" transform="matrix(1 0 0 -1 245.147 308.525)" fill="#9A2005"/>
<rect width="17.9375" height="153.666" transform="matrix(1 0 0 -1 387.452 308.525)" fill="#9A2005"/>
<rect width="17.9375" height="153.666" transform="matrix(1 0 0 -1 529.757 308.525)" fill="#9A2005"/>
<rect x="102.842" y="154.861" width="17.9375" height="153.666" fill="#9A2005"/>
</svg>
