<svg width="360" height="230" viewBox="0 0 360 230" fill="none" xmlns="http://www.w3.org/2000/svg">
<rect x="9.3587" y="74.438" width="341.283" height="4.45736" fill="#9E642E"/>
<rect x="9.3587" y="53.0426" width="341.283" height="4.45736" fill="#9E642E"/>
<path d="M9.3587 31.6473H350.641V36.1046H9.3587V31.6473Z" fill="#9E642E"/>
<rect x="9.3587" y="194.787" width="341.283" height="4.45736" fill="#9E642E"/>
<rect x="9.3587" y="130.601" width="341.283" height="4.45736" fill="#9E642E"/>
<rect x="9.3587" y="151.996" width="341.283" height="4.45736" fill="#9E642E"/>
<rect x="9.3587" y="173.392" width="341.283" height="4.45736" fill="#9E642E"/>
<rect width="360" height="13.3721" fill="#9A2005"/>
<rect x="350.641" width="9.35875" height="230" fill="#9A2005"/>
<rect y="88.7015" width="360" height="26.7442" fill="#9A2005"/>
<rect y="216.628" width="360" height="13.3721" fill="#9A2005"/>
<rect width="9.35875" height="230" fill="#0B4CAE"/>
<rect x="127.903" width="9.35875" height="88.7016" fill="#0B4CAE"/>
<rect x="276.395" width="9.35875" height="88.7016" fill="#9A2005"/>
<rect x="53.6569" width="9.35875" height="88.7016" fill="#0B4CAE"/>
<rect width="9.35875" height="114.554" transform="matrix(1 0 0 -1 127.903 230)" fill="#0B4CAE"/>
<rect width="9.35875" height="114.554" transform="matrix(1 0 0 -1 276.395 230)" fill="#9A2005"/>
<rect x="53.6569" y="115.446" width="9.35875" height="114.554" fill="#0B4CAE"/>
<rect y="88.7015" width="211.508" height="26.7442" fill="#0B4CAE"/>
<rect y="216.628" width="211.508" height="13.3721" fill="#0B4CAE"/>
<rect width="211.508" height="13.3721" fill="#0B4CAE"/>
<rect x="202.149" width="9.35875" height="88.7016" fill="#132E72"/>
<rect width="9.35875" height="114.554" transform="matrix(1 0 0 -1 202.149 230)" fill="#132E72"/>
</svg>
