<svg width="21" height="26" viewBox="0 0 21 26" fill="none" xmlns="http://www.w3.org/2000/svg">
<path d="M3.29573 19.0007C4.21497 21.1795 10.3918 25.1288 10.3918 25.1288C10.3918 25.1288 16.0551 21.5696 18.1402 18.7057C20.2253 15.8419 22.2541 8.09681 18.0983 4.03091C13.9009 -0.075762 6.59164 -0.154835 2.45497 4.37486C-1.45238 8.65344 2.37649 16.8218 3.29573 19.0007Z" fill="#9A2005"/>
<path d="M4.58694 19.5853C5.43723 21.7653 11.1508 25.7166 11.1508 25.7166C11.1508 25.7166 16.3893 22.1556 18.318 19.2902C20.2467 16.4249 22.1234 8.67592 18.2793 4.60795C14.3966 0.499178 7.63563 0.420065 3.80923 4.95207C0.194951 9.23283 3.73665 17.4053 4.58694 19.5853Z" fill="#C02604"/>
<ellipse cx="0.355829" cy="4.91173" rx="0.355829" ry="4.91173" transform="matrix(0.999327 0.0366829 -0.0332026 0.999449 11.1036 12.5892)" fill="#9A2005"/>
<ellipse cx="0.44875" cy="8.0034" rx="0.44875" ry="8.0034" transform="matrix(0.0497949 -0.99876 -0.998486 -0.0550059 19.8743 10.0112)" fill="#9A2005"/>
</svg>
