<svg width="35" height="43" viewBox="0 0 35 43" fill="none" xmlns="http://www.w3.org/2000/svg">
<path d="M4.84171 31.4701C6.45159 35.1801 17.2692 41.9046 17.2692 41.9046C17.2692 41.9046 27.1875 35.8443 30.8391 30.968C34.4908 26.0917 38.0438 12.904 30.7657 5.98097C23.4146 -1.01151 10.6139 -1.14615 3.36926 6.56661C-3.47375 13.8518 3.23183 27.7601 4.84171 31.4701Z" fill="#9A2005"/>
<path d="M7.10305 32.4656C8.59218 36.1775 18.5984 42.9054 18.5984 42.9054C18.5984 42.9054 27.7728 36.842 31.1506 31.9632C34.5283 27.0844 37.8149 13.8901 31.0827 6.96348C24.2829 -0.032572 12.4423 -0.167279 5.74105 7.54942C-0.588704 14.8383 5.61392 28.7537 7.10305 32.4656Z" fill="#C02604"/>
<ellipse cx="0.623146" cy="8.36352" rx="0.623146" ry="8.36352" transform="matrix(0.999364 0.0356661 -0.0341493 0.999417 18.5159 20.5531)" fill="#9A2005"/>
<ellipse cx="0.764147" cy="14.0153" rx="0.764147" ry="14.0153" transform="matrix(0.0512127 -0.998688 -0.998569 -0.0534837 33.876 16.1636)" fill="#9A2005"/>
</svg>
