<svg width="21" height="26" viewBox="0 0 21 26" fill="none" xmlns="http://www.w3.org/2000/svg">
<path d="M3.46166 18.9464C4.38089 21.1255 10.5577 25.0754 10.5577 25.0754C10.5577 25.0754 16.2211 21.5156 18.3062 18.6514C20.3913 15.7871 22.42 8.04097 18.2643 3.97449C14.0668 -0.132763 6.75756 -0.211847 2.62089 4.31849C-1.28646 8.59767 2.54242 16.7672 3.46166 18.9464Z" fill="#317C05"/>
<path d="M4.75307 19.5311C5.60336 21.7115 11.3169 25.6633 11.3169 25.6633C11.3169 25.6633 16.5555 22.1017 18.4842 19.236C20.4129 16.3703 22.2895 8.6202 18.4454 4.55165C14.5628 0.442299 7.80177 0.363174 3.97537 4.89582C0.361089 9.17719 3.90278 17.3508 4.75307 19.5311Z" fill="#379600"/>
<ellipse cx="0.355829" cy="4.91242" rx="0.355829" ry="4.91242" transform="matrix(0.999327 0.036688 -0.0331979 0.999449 11.2697 12.534)" fill="#317C05"/>
<ellipse cx="0.448604" cy="8.00339" rx="0.448604" ry="8.00339" transform="matrix(0.0497879 -0.99876 -0.998486 -0.0550137 20.0402 9.95567)" fill="#317C05"/>
</svg>
