<svg width="35" height="42" viewBox="0 0 35 42" fill="none" xmlns="http://www.w3.org/2000/svg">
<path d="M5.35677 30.5805C6.93913 34.2544 17.5718 40.9135 17.5718 40.9135C17.5718 40.9135 27.3206 34.9121 30.9099 30.0832C34.4991 25.2542 37.9914 12.1948 30.8377 5.33898C23.6123 -1.58555 11.0303 -1.71888 3.90949 5.91893C-2.81657 13.1333 3.77441 26.9065 5.35677 30.5805Z" fill="#317C05"/>
<path d="M7.58 31.5663C9.04367 35.2422 18.8789 41.9047 18.8789 41.9047C18.8789 41.9047 27.8964 35.9002 31.2165 31.0688C34.5365 26.2374 37.7669 13.1713 31.1498 6.312C24.4663 -0.616061 12.828 -0.749459 6.24127 6.89225C0.0197015 14.1103 6.11632 27.8905 7.58 31.5663Z" fill="#379600"/>
<ellipse cx="0.612502" cy="8.28218" rx="0.612502" ry="8.28218" transform="matrix(0.999354 0.0359333 -0.0338953 0.999425 18.7975 19.7697)" fill="#317C05"/>
<ellipse cx="0.756706" cy="13.7761" rx="0.756706" ry="13.7761" transform="matrix(0.0508323 -0.998707 -0.998547 -0.0538838 33.8949 15.4228)" fill="#317C05"/>
</svg>
