<svg width="56" height="67" viewBox="0 0 56 67" fill="none" xmlns="http://www.w3.org/2000/svg">
<path d="M7.19896 18.0718C9.77944 12.2096 27.119 1.58424 27.119 1.58424C27.119 1.58424 43.0171 11.1602 48.8704 18.8653C54.7237 26.5703 60.4188 47.4082 48.7527 58.3473C36.9696 69.3962 16.4512 69.6089 4.83877 57.422C-6.12992 45.9106 4.61849 23.934 7.19896 18.0718Z" fill="#317C05"/>
<path d="M10.8246 16.4995C13.2115 10.6343 29.2506 0.0035553 29.2506 0.0035553C29.2506 0.0035553 43.9563 9.58438 49.3705 17.2934C54.7848 25.0024 60.0529 45.8508 49.2617 56.7955C38.3624 67.85 19.3829 68.0629 8.64138 55.8697C-1.50464 44.3525 8.43762 22.3647 10.8246 16.4995Z" fill="#379600"/>
<ellipse cx="0.998827" cy="13.2155" rx="0.998827" ry="13.2155" transform="matrix(0.999382 -0.0351594 -0.0346415 -0.9994 29.1176 35.3225)" fill="#317C05"/>
<ellipse cx="1.20748" cy="22.4643" rx="1.20748" ry="22.4643" transform="matrix(0.0519497 0.99865 -0.998609 0.0527251 53.738 42.2583)" fill="#317C05"/>
</svg>
